<?xml version="1.0" encoding="UTF-8"?>
<svg id="_レイヤー_2" data-name="レイヤー 2" xmlns="http://www.w3.org/2000/svg" viewBox="0 0 123.19 128.61">
  <defs>
    <style>
      .cls-1 {
        fill: none;
        stroke: #e3a0b2;
        stroke-miterlimit: 10;
        stroke-width: 1.46px;
      }
    </style>
  </defs>
  <g id="_レイヤー_1-2" data-name="レイヤー 1">
    <path class="cls-1" d="m122.37,59.74c-1.89.06-3.84-.68-5.24-2.47l-.9-1.15c-2.22,4.99-9.52,4.99-11.74,0l-.9,1.15c-3.84,4.88-11.76,2.03-11.53-4.15l.1-2.66-.67.41c-4.85,3.01-10.67-1.22-9.81-6.36h-.01c-6.12,1.3-10.33-5.91-6.13-10.49l1.85-2.02c.06-.07.12-.14.18-.21l-2.25-.31c-5.79-.79-7.44-7.99-3.14-11.29-2.13-1.63-2.8-4.22-2.24-6.51-3.77-6.58-13.95-6.29-17.15.88l-1.36-1.72c-5.76-7.31-17.62-3.05-17.28,6.21l.15,3.99-1-.62c-7.27-4.51-15.99,1.84-14.7,9.53h-.02c-9.17-1.95-15.48,8.86-9.19,15.73l2.77,3.02c.09.1.18.21.27.32l-3.37.46c-8.67,1.19-11.16,11.98-4.7,16.93-6.46,4.95-3.97,15.74,4.7,16.93l3.37.46c-.09.11-.18.21-.27.32l-2.77,3.02c-6.29,6.87.02,17.68,9.19,15.73h.02c-1.3,7.69,7.42,14.04,14.7,9.53l1-.62-.15,3.99c-.35,9.26,11.52,13.53,17.28,6.21l1.36-1.72c3.33,7.48,14.27,7.48,17.6,0l1.36,1.72c5.76,7.31,17.62,3.05,17.28-6.21l-.15-3.99,1,.62c7.27,4.51,15.99-1.84,14.7-9.53h.02c9.17,1.95,15.48-8.86,9.19-15.73l-2.77-3.02c-.09-.1-.18-.21-.27-.32l3.37-.46c8.67-1.19,11.16-11.98,4.7-16.93,2.86-2.19,3.96-5.54,3.55-8.68Z"/>
    <path class="cls-1" d="m84.28,10.77c2.33,4.15-.65,8.36-4.62,8.36-1.99,0-3.79-1.22-4.64-3-2.06-4.27.17-2.35,3.28-5.88,1.67-1.9,4.75-1.67,5.99.53Z"/>
    <path class="cls-1" d="m71.37.89c3.77-.92,6.45,2.27,5.61,5.32-.42,1.53-1.77,2.66-3.35,2.94-3.8.68-1.81-.63-3.95-3.77-1.14-1.68-.31-4.01,1.68-4.5Z"/>
    <path class="cls-1" d="m32.92,70.58c-.02-1.49,1.16-6.2,2.67-6.21s2.78,4.66,2.8,6.16-1.19,2.71-2.7,2.73-2.75-1.18-2.76-2.67Z"/>
    <path class="cls-1" d="m33.42,95.18c-.02-1.49,1.16-6.2,2.67-6.21s2.78,4.66,2.8,6.16-1.19,2.71-2.7,2.73-2.75-1.18-2.76-2.67Z"/>
    <path class="cls-1" d="m57.47,44.74c-.02-1.49,1.16-6.2,2.67-6.21s2.78,4.66,2.8,6.16-1.19,2.71-2.7,2.73-2.75-1.18-2.76-2.67Z"/>
    <path class="cls-1" d="m58.86,95.64c-.02-1.49,1.16-6.2,2.67-6.21s2.78,4.66,2.8,6.16-1.19,2.71-2.7,2.73-2.75-1.18-2.76-2.67Z"/>
    <path class="cls-1" d="m58.86,70.19c-.02-1.49,1.16-6.2,2.67-6.21s2.78,4.66,2.8,6.16-1.19,2.71-2.7,2.73-2.75-1.18-2.76-2.67Z"/>
    <path class="cls-1" d="m83.72,95.64c-.02-1.49,1.16-6.2,2.67-6.21s2.78,4.66,2.8,6.16-1.19,2.71-2.7,2.73-2.75-1.18-2.76-2.67Z"/>
    <path class="cls-1" d="m82.37,70.91c-.02-1.49,1.16-6.2,2.67-6.21s2.78,4.66,2.8,6.16-1.19,2.71-2.7,2.73-2.75-1.18-2.76-2.67Z"/>
    <path class="cls-1" d="m32.92,46.11c-.02-1.49,1.16-6.2,2.67-6.21s2.78,4.66,2.8,6.16-1.19,2.71-2.7,2.73-2.75-1.18-2.76-2.67Z"/>
  </g>
</svg>