<?xml version="1.0" encoding="UTF-8"?>
<svg id="_レイヤー_2" data-name="レイヤー 2" xmlns="http://www.w3.org/2000/svg" xmlns:xlink="http://www.w3.org/1999/xlink" viewBox="0 0 30 29.17">
  <defs>
    <style>
      .cls-1 {
        fill: #ded69b;
      }

      .cls-2, .cls-3, .cls-4 {
        fill: none;
      }

      .cls-3 {
        clip-path: url(#clippath);
      }

      .cls-4 {
        clip-path: url(#clippath-1);
      }
    </style>
    <clipPath id="clippath">
      <rect class="cls-2" width="30" height="29.17"/>
    </clipPath>
    <clipPath id="clippath-1">
      <rect class="cls-2" y="0" width="30" height="29.17"/>
    </clipPath>
  </defs>
  <g id="_レイヤー_1-2" data-name="レイヤー 1">
    <g id="_アートワーク_4" data-name="アートワーク 4">
      <g class="cls-3">
        <g class="cls-4">
          <path class="cls-1" d="m15,12.43c-1.24,0-2.15.97-2.15,2.15s.91,2.15,2.15,2.15,2.15-.91,2.15-2.15-.97-2.15-2.15-2.15"/>
          <path class="cls-1" d="m25.43,15.55l-1.99-1.34c-.7-.47-.91-1.4-.49-2.12l1.07-1.82.13-.23c.32-.57.26-1.27-.14-1.78l-.32-.4c-.41-.51-1.08-.71-1.7-.53l-2.42.73c-.79.24-1.62-.17-1.93-.93l-.82-2.04-.1-.25c-.25-.6-.83-.98-1.48-.98h-.5c-.64,0-1.22.4-1.46,1l-.91,2.26c-.31.76-1.14,1.16-1.93.93l-2.19-.66-.26-.07c-.62-.18-1.29.04-1.69.56l-.31.4c-.4.51-.44,1.22-.11,1.78l1.19,2.03c.43.73.21,1.66-.49,2.12l-1.79,1.2-.22.15c-.54.37-.79,1.03-.65,1.67l.12.5c.15.64.67,1.12,1.31,1.22l2.45.37c.82.12,1.41.86,1.35,1.69l-.16,2.13v.27c-.05.64.31,1.24.89,1.52l.46.22c.58.28,1.27.18,1.75-.26l1.86-1.68c.61-.55,1.53-.55,2.13,0l1.68,1.52.2.18c.49.43,1.18.52,1.76.23l.45-.23c.58-.29.92-.9.87-1.54l-.18-2.36c-.06-.83.53-1.57,1.35-1.69l2.22-.33.27-.04c.64-.11,1.16-.6,1.29-1.23l.11-.5c.14-.64-.13-1.29-.67-1.65m-10.43,3.89c-2.67,0-4.86-2.19-4.86-4.86s2.18-4.86,4.86-4.86,4.86,2.19,4.86,4.86-2.18,4.86-4.86,4.86"/>
        </g>
      </g>
    </g>
  </g>
</svg>