<?xml version="1.0" encoding="UTF-8"?>
<svg id="_レイヤー_1" data-name="レイヤー 1" xmlns="http://www.w3.org/2000/svg" viewBox="0 0 512 512">
  <defs>
    <style>
      .cls-1, .cls-2 {
        fill: #fff;
      }

      .cls-2 {
        stroke-width: 4.52px;
      }

      .cls-2, .cls-3 {
        stroke: #fff;
        stroke-miterlimit: 10;
      }

      .cls-3 {
        fill: #ddd59a;
        stroke-width: 10px;
      }

      .cls-4 {
        fill: #a6e39d;
      }
    </style>
  </defs>
  <rect class="cls-4" x="0" y="0" width="512" height="512"/>
  <path class="cls-1" d="m490.95,346.1c0-74.28-24.31-144.18-68.44-196.81-44.44-53-103.65-82.19-166.7-82.19s-122.25,29.19-166.7,82.19c-44.14,52.63-68.44,122.52-68.44,196.81v196.14c0,22.12,8.45,42.92,23.79,58.55,15.31,15.6,35.67,24.2,57.31,24.2h.12l308.46-.43c21.68-.03,42.04-8.67,57.34-24.34,15.3-15.66,23.7-36.47,23.65-58.59-.1-49.9-.38-182.44-.38-195.54ZM36.89,542.25v-110.14l49.67.77-18.33,22c-2.16,2.59-1.95,6.45.49,8.77l25.91,24.73-24.96,21.69c-2.47,2.15-2.91,5.92-1,8.6l18.92,26.51-50.64-.18c-.04-.91-.07-1.83-.07-2.75Zm63,13.8h0s0,0,0,0h0Zm-.02,1.91h.02c2.35,0,4.48-1.33,5.56-3.47,1.08-2.15.88-4.7-.51-6.64l-22.77-31.9,25.88-22.49c1.35-1.17,2.15-2.88,2.19-4.7.04-1.81-.68-3.56-1.98-4.8l-26.66-25.46,23.05-27.66c1.56-1.87,1.92-4.52.93-6.75-.99-2.23-3.18-3.7-5.59-3.74l-63.09-.97v-73.27c0-115.41,62.46-213.65,148.98-248.71,3.32,36.52,33.5,65.2,70.14,65.2s66.74-28.61,70.12-65.05c86.32,35.19,148.59,133.32,148.59,248.55,0,5.38.04,29.53.13,73.16l-70.07,1.08c-2.41.04-4.6,1.51-5.59,3.74-.99,2.23-.63,4.88.93,6.75l23.04,27.66-26.66,25.46c-1.3,1.24-2.02,2.99-1.97,4.8.04,1.81.84,3.52,2.19,4.7l25.88,22.49-22.77,31.9c-1.39,1.95-1.59,4.5-.51,6.64,1.07,2.14,3.2,3.47,5.56,3.47h.02l68.33-.25c-2.78,11.57-8.6,22.18-17.05,30.83-12.24,12.53-28.53,19.44-45.87,19.47l-308.55.43c-17.31,0-33.6-6.87-45.85-19.36-8.61-8.77-14.49-19.58-17.24-31.35l61.19.22Zm156.13-408.09c-31.23,0-56.76-25.34-57.92-56.93,18.4-6.03,37.75-9.28,57.72-9.28s39.6,3.29,58.12,9.4c-1.22,31.53-26.72,56.8-57.92,56.8Zm219.1,391.81c0,1.1-.02,2.2-.07,3.29l-57.85.21,18.92-26.51c1.91-2.67,1.47-6.45-1-8.6l-24.96-21.69,25.91-24.73c2.44-2.33,2.65-6.18.49-8.77l-18.33-21.99,56.67-.88c.06,29.09.13,65.59.22,109.67Z"/>
  <path class="cls-3" d="m306.9,264.78c-6.25,3.14-13.78,2.17-19.03-2.45l-2.17-1.91-18.16-16.45c-6.54-5.92-16.5-5.92-23.04,0l-20.06,18.17c-5.15,4.67-12.62,5.76-18.9,2.77l-4.91-2.34c-6.28-2.99-10.14-9.48-9.76-16.43l.16-2.87,1.71-23.02c.67-8.96-5.69-16.91-14.57-18.24l-26.45-3.96c-6.97-1.04-12.6-6.25-14.18-13.12l-1.24-5.37c-1.58-6.86,1.19-14,6.99-17.99l2.4-1.65,19.29-12.95c7.54-5.06,9.83-15.1,5.24-22.93l-12.83-21.87c-3.55-6.05-3.06-13.64,1.23-19.19l3.36-4.34c4.29-5.54,11.52-7.92,18.27-6l2.79.8,23.62,7.09c8.5,2.55,17.53-1.8,20.85-10.02l9.83-24.41c2.6-6.45,8.83-10.69,15.79-10.75l5.44-.04c6.97-.05,13.28,4.12,15.97,10.55l1.11,2.66,8.86,21.99c3.31,8.23,12.35,12.57,20.85,10.02l26.11-7.84c6.7-2.01,13.95.25,18.32,5.7l3.43,4.28c4.39,5.48,5,13.08,1.54,19.19l-1.43,2.53-11.52,19.64c-4.59,7.83-2.3,17.88,5.24,22.93l21.49,14.42c5.83,3.91,8.69,10.99,7.22,17.85l-1.16,5.38c-1.48,6.88-7.01,12.17-13.95,13.32l-2.89.48-23.91,3.58c-8.88,1.33-15.24,9.29-14.57,18.25l1.9,25.47c.52,6.93-3.2,13.49-9.41,16.61l-4.87,2.44Z"/>
  <path class="cls-2" d="m308.41,150.95c0,28.82-23.58,52.41-52.4,52.41s-52.41-23.59-52.41-52.41,23.58-52.41,52.41-52.41,52.4,23.58,52.4,52.41Zm-29.19,0c0-12.77-10.45-23.21-23.21-23.21s-23.21,10.44-23.21,23.21,9.86,23.21,23.21,23.21,23.21-9.86,23.21-23.21Z"/>
</svg>