<?xml version="1.0" encoding="UTF-8"?>
<svg id="_レイヤー_2" data-name="レイヤー 2" xmlns="http://www.w3.org/2000/svg" viewBox="0 0 364.98 423.97">
  <defs>
    <style>
      .cls-1 {
        font-family: AB-maruhanamaki-90ms-RKSJ-H, AB-maruhanamaki;
        font-size: 19px;
      }

      .cls-1, .cls-2, .cls-3 {
        fill: #fff;
      }

      .cls-4 {
        fill: #ded69b;
      }

      .cls-3 {
        stroke: #fff;
        stroke-miterlimit: 10;
        stroke-width: 2.9px;
      }
    </style>
  </defs>
  <g id="_レイヤー_1-2" data-name="レイヤー 1">
    <text class="cls-1" transform="translate(97.71 43.12) rotate(65.21)"><tspan x="0" y="0">k</tspan></text>
    <text class="cls-1" transform="translate(103.7 55.9) rotate(55.96)"><tspan x="0" y="0">a</tspan></text>
    <text class="cls-1" transform="translate(112.2 68.13) rotate(47.28)"><tspan x="0" y="0">p</tspan></text>
    <text class="cls-1" transform="translate(120.68 77.2) rotate(39.45)"><tspan x="0" y="0">p</tspan></text>
    <text class="cls-1" transform="translate(130.4 85.18) rotate(30.74)"><tspan x="0" y="0">a</tspan></text>
    <text class="cls-1" transform="translate(143.25 92.56) rotate(22.6)"><tspan x="0" y="0"> </tspan></text>
    <text class="cls-1" transform="translate(153.15 96.72) rotate(14.57)"><tspan x="0" y="0">c</tspan></text>
    <text class="cls-1" transform="translate(167.28 100.29) rotate(5.14)"><tspan x="0" y="0">o</tspan></text>
    <text class="cls-1" transform="translate(182.29 101.52) rotate(-4.28)"><tspan x="0" y="0">o</tspan></text>
    <text class="cls-1" transform="translate(197.25 100.25) rotate(-13.54)"><tspan x="0" y="0">k</tspan></text>
    <text class="cls-1" transform="translate(210.43 96.8) rotate(-19.66)"><tspan x="0" y="0">i</tspan></text>
    <text class="cls-1" transform="translate(215.69 95.12) rotate(-25.94)"><tspan x="0" y="0">e</tspan></text>
    <text class="cls-1" transform="translate(228.59 88.6) rotate(-33.96)"><tspan x="0" y="0"> </tspan></text>
    <text class="cls-1" transform="translate(237.39 82.66) rotate(-41.22)"><tspan x="0" y="0">s</tspan></text>
    <text class="cls-1" transform="translate(246.68 74.41) rotate(-48.97)"><tspan x="0" y="0">h</tspan></text>
    <text class="cls-1" transform="translate(254.74 65.15) rotate(-57.57)"><tspan x="0" y="0">o</tspan></text>
    <text class="cls-1" transform="translate(262.6 52.4) rotate(-66.35)"><tspan x="0" y="0">p</tspan></text>
    <path class="cls-3" d="m363.23,212.02c0-56.11-18.73-108.89-52.73-148.62C276.32,23.45,230.8,1.45,182.34,1.45S88.36,23.45,54.18,63.4C20.18,103.14,1.45,155.92,1.45,212.02v149.06c0,16.43,6.4,31.86,18.02,43.47,11.6,11.59,27.02,17.96,43.41,17.96h.09l239.19-.33c16.42-.02,31.85-6.44,43.44-18.07,11.59-11.63,17.95-27.08,17.92-43.5-.11-51.47-.29-139.22-.29-148.6Zm-10.04,152.58h-.01l-48.57.17,16.36-22.47c1.04-1.43.81-3.42-.54-4.57l-20.59-17.54,21.28-19.91c1.32-1.24,1.44-3.29.27-4.67l-16.21-19.06,47.96-.73c.18,0,.36-.03.53-.06.05,26.26.12,56.94.18,84.87,0,1.34-.06,2.68-.16,4-.16-.02-.32-.05-.49-.05ZM228.89,18.68c-.4,25.25-21.05,45.67-46.39,45.67s-46.05-20.47-46.39-45.77c14.71-4.85,30.22-7.45,46.24-7.45s31.74,2.63,46.54,7.55ZM38.26,300.29l21.28,19.91-20.59,17.54c-1.35,1.15-1.58,3.14-.54,4.57l16.36,22.47-43.5-.16c-.08-1.17-.13-2.35-.13-3.53v-85.17l43.07.65-16.21,19.06c-1.17,1.38-1.05,3.43.27,4.67Zm300.49,97c-9.76,9.8-22.76,15.2-36.6,15.22l-239.19.33h-.07c-13.81,0-26.8-5.37-36.58-15.13-7.31-7.3-12.17-16.4-14.16-26.31l49.27.18h.01c1.27,0,2.44-.71,3.02-1.85.58-1.14.47-2.5-.28-3.54l-18.45-25.33,21.09-17.96c.73-.63,1.17-1.53,1.19-2.5.02-.96-.37-1.89-1.07-2.55l-21.69-20.29,18.77-22.07c.85-1,1.05-2.4.5-3.59-.54-1.19-1.72-1.97-3.03-1.99l-50.36-.76v-57.11c0-89.1,49.7-164.83,118.28-191.05,1.58,27.92,24.78,50.15,53.09,50.15s51.45-22.17,53.08-50.03c68.42,26.33,117.98,101.97,117.98,190.94,0,4.62.04,27.44.1,57.1-.2-.04-.41-.06-.62-.06l-55.14.83c-1.31.02-2.49.79-3.03,1.99-.54,1.19-.34,2.59.5,3.59l18.77,22.07-21.69,20.29c-.7.66-1.09,1.59-1.07,2.55.02.96.46,1.87,1.19,2.5l21.09,17.96-18.45,25.33c-.75,1.03-.86,2.4-.28,3.54.58,1.13,1.74,1.85,3.02,1.85h.01l54.8-.2c-2.02,9.74-6.81,18.7-14,25.91Z"/>
    <path class="cls-2" d="m84.23,181.19c5.07,6.54,4.88,16.34-.49,28.59-.96,2.02-3.33,2.93-5.29,1.98-1.81-.93-2.73-3.29-1.77-5.31,2.98-7.19,5.08-15.53,1.24-20.59-2.02-2.69-5.67-4.33-9.78-5.11-2.98,8.78-6.37,18.58-10.11,27.28-.94,1.8-3.08,2.72-4.91,2.02-2.04-.95-2.96-3.16-2.01-5.11,3.27-7.77,6.44-16.91,9.12-24.96-2.65-.11-5.33.01-7.65.39-2.15.17-4.28-1.4-4.61-3.47-.4-2.15,1.15-4.04,3.25-4.45,2.92-.25,7.14-.59,11.68-.38,1.69-5.66,3.09-10.66,3.98-13.59.72-1.97,2.75-3.28,4.83-2.7,2,.57,3.17,2.58,2.6,4.56l-3.91,12.85c5.37,1.13,10.47,3.51,13.83,7.99Zm16.85,8.44c-1.65,1.35-4.07,1.12-5.41-.75l-6.99-8.76c-1.34-1.87-1.11-4.26.77-5.59,1.65-1.35,4.05-.97,5.41.68l6.97,8.99c1.36,1.64,1.12,4.12-.76,5.44Z"/>
    <path class="cls-4" d="m182.05,172.4c-.82.41-1.8.28-2.49-.32l-.28-.25-2.37-2.15c-.85-.77-2.16-.77-3.01,0l-2.62,2.37c-.67.61-1.65.75-2.47.36l-.64-.31c-.82-.39-1.32-1.24-1.27-2.15l.02-.38.22-3.01c.09-1.17-.74-2.21-1.9-2.38l-3.46-.52c-.91-.14-1.65-.82-1.85-1.71l-.16-.7c-.21-.9.16-1.83.91-2.35l.31-.22,2.52-1.69c.98-.66,1.28-1.97.68-3l-1.68-2.86c-.46-.79-.4-1.78.16-2.51l.44-.57c.56-.72,1.51-1.03,2.39-.78l.37.1,3.09.93c1.11.33,2.29-.23,2.72-1.31l1.29-3.19c.34-.84,1.15-1.4,2.06-1.4h.71c.91-.01,1.74.53,2.09,1.37l.15.35,1.16,2.87c.43,1.08,1.61,1.64,2.72,1.31l3.41-1.02c.88-.26,1.82.03,2.39.75l.45.56c.57.72.65,1.71.2,2.51l-.19.33-1.51,2.57c-.6,1.02-.3,2.34.68,3l2.81,1.88c.76.51,1.14,1.44.94,2.33l-.15.7c-.19.9-.92,1.59-1.82,1.74l-.38.06-3.12.47c-1.16.17-1.99,1.21-1.9,2.38l.25,3.33c.07.91-.42,1.76-1.23,2.17l-.64.32Z"/>
    <path class="cls-2" d="m195.41,203.41c-1.03.43-2.16-.11-2.59-1.14-1.54-3.78-3.66-6.3-6.3-7.35-2.89-1.24-5.78-.36-7.62.59-7.15,3.53-5.1,9.86-4.89,10.56l.03.11c.18.6.9,2.31,2.12,2.9.67.3,1.43.26,2.39-.15,2.84-1.06,2.72-5.27,2.48-7.71-.25-1.08.52-2.09,1.48-2.38,1.06-.32,2.07.45,2.29,1.43.51,3.32.76,10.08-4.86,12.29-2.42.93-4.28.53-5.5-.06-2.84-1.33-3.91-4.6-4.1-5.2l-.11-.35c-1.11-3.64-1-10.89,6.9-14.96,3.81-1.82,7.47-2.09,10.91-.7,2.52,1.05,6.02,3.65,8.46,9.77.4.92-.15,2.05-1.1,2.34Z"/>
    <path class="cls-2" d="m123.44,172.52l.36,21.32c0,2.17-1.66,3.83-3.61,3.98-2.17,0-3.97-1.59-3.97-3.76l-.36-21.32c-.22-2.02,1.59-3.83,3.61-3.83,2.17-.14,3.76,1.66,3.97,3.61Zm42.63,19.15c-.58,2.02-2.53,3.11-4.55,2.75-.15-.22-.36-.22-.51-.22-.58-.14-1.08.22-1.08.72-.94,5.42-2.53,10.12-5.64,12.79-4.84,4.34-10.62,5.64-15.9,3.47-4.7-1.81-8.09-6-8.46-10.33-.58-6.65,2.17-10.41,4.7-12.43,3.76-3.04,9.4-4.12,17.13-3.4.58.15,1.08-.36,1.08-.94-.14-2.89-.36-5.78-.72-8.82h-10.98c-2.17,0-3.83-1.66-3.83-3.61,0-2.17,1.66-3.83,3.83-3.83h9.9c-.36-1.81-.5-3.61-.87-5.2-.58-2.02.72-3.97,2.67-4.55,2.02-.36,3.97.94,4.55,2.89.36,1.81.72,4.19,1.23,6.86h3.25c2.02,0,3.61,1.66,3.61,3.61s-1.59,3.83-3.61,3.83h-2.17c.36,3.25.58,6.65.72,10.12,0,.72.36,1.23.94,1.23.72.22,1.45.36,2.17.58,1.95.51,3.03,2.53,2.53,4.48Zm-14.67-.26c-7.81-.76-11.38.61-12.89,1.9-.61.61-2.5,1.9-2.13,6.29.23,1.44,1.74,3.34,4.02,4.32,1.52.53,4.93,1.14,8.49-2.12,1.9-1.67,3.03-4.85,3.41-9.03.23-.61-.38-1.14-.91-1.36Zm30.85-33.4c0,3.77-3.08,6.85-6.85,6.85s-6.85-3.08-6.85-6.85,3.08-6.85,6.85-6.85,6.85,3.08,6.85,6.85Zm-3.81,0c0-1.67-1.37-3.03-3.03-3.03s-3.03,1.36-3.03,3.03,1.29,3.03,3.03,3.03,3.03-1.29,3.03-3.03Z"/>
    <path class="cls-2" d="m217.54,205.5c1.42,1.29,1.42,3.55.32,5.04-1.29,1.42-3.55,1.62-4.85.32-8.72-8.08-16.48-18.42-19.39-22.3-1.49-2.26-1.49-5.17.32-7.24l15.64-19.07c1.29-1.49,3.43-1.62,4.85-.32,1.49,1.1,1.81,3.36.52,4.85l-14.54,17.58c-.32.52-.52.97-.19,1.49,3.43,4.33,10.02,12.93,17.32,19.65Z"/>
    <path class="cls-2" d="m110.4,210.34c-.44.92-1.54,1.21-2.45.73-.84-.55-1.21-1.65-.73-2.56,2.01-3.92,2.56-6.84,1.35-8.31-2.01-2.45-9.33-1.46-13.8-.26-1.02.26-2.01-.29-2.31-1.28-.37-.92.29-2.01,1.21-2.2,4.21-1.21,13.98-3.22,17.75,1.46,2.2,2.75,1.9,6.77-1.03,12.41Z"/>
    <path class="cls-2" d="m240.91,211.01c-.54,1.13-1.9,1.49-3.03.9-1.04-.68-1.49-2.03-.9-3.16,2.48-4.83,3.16-8.44,1.67-10.25-2.48-3.03-11.52-1.81-17.03-.32-1.26.32-2.48-.36-2.85-1.58-.45-1.13.36-2.48,1.49-2.71,5.19-1.49,17.25-3.97,21.9,1.81,2.71,3.39,2.35,8.35-1.27,15.31Z"/>
    <path class="cls-2" d="m280.09,170.19c.46,1.79-.68,3.71-2.35,4.14l-7.31,1.86,3.23,8.52c.79,2.28-.51,4.94-2.94,5.7-2.94.96-9.3,3.78-10.28,7.71-.74,2.66,1.11,5.74,3.4,8.34,1.27,1.66,1.11,3.82-.1,5.19-1.37,1.55-3.74,1.45-4.96-.01-2.79-3.18-4.58-6.05-5.34-9.04-.56-2.19-.53-4.32.06-6.17,1.44-6.03,7.25-9.63,11.6-11.44.42-.32.63-.87.49-1.4-.47-1.3-1.21-3.37-2.14-5.61l-19.94,5.07c-1.79.46-3.71-.68-4.17-2.48s.72-3.58,2.51-4.04l19.28-4.9c-.68-2.09-1.6-4.33-2.31-6.28l-12.43,3.16c-1.86.47-3.71-.68-4.17-2.48-.42-1.66.65-3.56,2.51-4.04l11.77-2.99c-.12-.47-.39-.96-.5-1.43-.71-1.94.2-3.94,2.14-4.65,1.83-.61,3.96.27,4.67,2.21l.67,2.09,3.32-.85c1.86-.47,3.71.68,4.14,2.34.46,1.8-.62,3.7-2.48,4.17l-2.66.68,2.31,6.28,7.98-2.03c1.66-.42,3.53.52,4,2.38Z"/>
    <path class="cls-4" d="m237.48,238.88h-108.89c-7,0-12.09,3.35-12.09,7.98s5.31,7.98,12.09,7.98h108.89c6.78,0,12.08-3.5,12.08-7.98s-5.08-7.98-12.08-7.98Z"/>
    <path class="cls-4" d="m282.26,194.85c-.53,0-1.07-.13-1.58-.39-1.65-.87-2.29-2.92-1.42-4.58l6.65-12.62c.46-.87,1.27-1.5,2.23-1.72.96-.22,1.97-.01,2.76.57l8.92,6.52,6.12-8.29c1-1.35,2.84-1.77,4.32-.98l10.63,5.68c1.65.88,2.27,2.93,1.39,4.58-.88,1.65-2.93,2.27-4.58,1.39l-8.05-4.3-6.38,8.65c-1.11,1.5-3.22,1.82-4.73.72l-8.47-6.2-4.83,9.15c-.61,1.15-1.78,1.81-3,1.81Z"/>
  </g>
</svg>