<?xml version="1.0" encoding="UTF-8"?>
<svg id="_レイヤー_2" data-name="レイヤー 2" xmlns="http://www.w3.org/2000/svg" viewBox="0 0 359.63 416.71">
  <defs>
    <style>
      .cls-1, .cls-2 {
        fill: #fff;
      }

      .cls-3, .cls-4 {
        fill: #dc99a2;
      }

      .cls-4 {
        font-size: 18.8px;
      }

      .cls-4, .cls-2 {
        font-family: AB-maruhanamaki-90ms-RKSJ-H, AB-maruhanamaki;
      }

      .cls-5 {
        fill: #ded69b;
      }

      .cls-2 {
        font-size: 18.53px;
      }
    </style>
  </defs>
  <g id="_レイヤー_1-2" data-name="レイヤー 1">
    <path class="cls-3" d="m359.35,208.39c0-55.53-18.54-107.76-52.18-147.08C273.33,21.77,228.28,0,180.33,0S87.32,21.77,53.49,61.31C19.83,100.63,1.31,152.86,1.31,208.39v147.52c0,16.25,6.33,31.53,17.83,43.01,11.48,11.47,26.74,17.78,42.97,17.78h.08l236.73-.33c16.25-.02,31.51-6.37,42.98-17.88,11.47-11.51,17.77-26.79,17.73-43.04-.11-50.94-.29-137.78-.29-147.06ZM180.33,9.57c15.96,0,31.41,2.6,46.07,7.46-.39,24.99-20.83,45.21-45.92,45.21s-45.58-20.27-45.91-45.31c14.56-4.8,29.91-7.36,45.76-7.36ZM10.89,355.91v-84.3l42.62.65-16.04,18.86c-1.16,1.36-1.05,3.39.27,4.61l21.05,19.7-20.38,17.36c-1.34,1.14-1.57,3.11-.53,4.52l16.19,22.24-43.06-.16c-.08-1.16-.12-2.33-.12-3.49Zm324.23,35.83c-9.67,9.7-22.52,15.05-36.22,15.06l-236.72.33h-.07c-13.68,0-26.53-5.31-36.2-14.97-7.23-7.22-12.04-16.23-14-26.04l48.75.17h0c1.26,0,2.41-.7,2.99-1.82.57-1.13.47-2.47-.28-3.5l-18.26-25.07,20.87-17.77c.73-.62,1.16-1.51,1.18-2.47.02-.95-.37-1.87-1.06-2.52l-21.47-20.09,18.58-21.84c.84-.99,1.04-2.38.5-3.55-.54-1.18-1.71-1.95-3.01-1.97l-49.83-.75v-56.52C10.89,120.2,60.06,45.25,127.93,19.3c1.55,27.64,24.52,49.64,52.54,49.64s50.94-21.94,52.54-49.52c67.71,26.05,116.75,100.92,116.75,188.98,0,4.57.04,27.16.1,56.51-.2-.05-.41-.06-.61-.06l-54.57.82c-1.3.02-2.46.79-3,1.97-.54,1.18-.35,2.56.49,3.55l18.58,21.84-21.47,20.09c-.69.65-1.08,1.57-1.06,2.52.02.96.45,1.85,1.18,2.47l20.87,17.77-18.26,25.07c-.74,1.03-.85,2.38-.28,3.5.57,1.12,1.73,1.82,2.99,1.82h0l54.23-.19c-1.99,9.64-6.75,18.51-13.86,25.64Zm14.8-32.31c-.16-.03-.34-.04-.5-.04h0l-48.07.18,16.19-22.24c1.04-1.42.8-3.38-.53-4.52l-20.38-17.36,21.05-19.7c1.31-1.22,1.43-3.26.27-4.61l-16.04-18.86,47.46-.72c.18,0,.36-.02.53-.06.05,25.99.12,56.35.17,83.99,0,1.33-.04,2.64-.14,3.95Z"/>
    <path class="cls-1" d="m352.75,207.68c0-54.71-18.26-106.17-51.41-144.91C268.01,23.81,223.62,2.36,176.37,2.36S84.74,23.81,51.41,62.77C18.25,101.51,0,152.97,0,207.68v145.34c0,16.01,6.24,31.06,17.57,42.38,11.31,11.3,26.35,17.52,42.34,17.52h.08l233.23-.32c16.01-.02,31.05-6.28,42.35-17.62,11.3-11.34,17.51-26.39,17.47-42.4-.11-50.19-.28-135.74-.28-144.89ZM176.37,11.79c15.73,0,30.95,2.56,45.39,7.35-.38,24.62-20.52,44.54-45.24,44.54s-44.91-19.97-45.23-44.64c14.34-4.73,29.47-7.25,45.09-7.25ZM9.44,353.02v-83.05l41.99.64-15.81,18.58c-1.14,1.34-1.03,3.34.26,4.54l20.74,19.41-20.08,17.1c-1.32,1.12-1.55,3.06-.53,4.46l15.95,21.91-42.42-.16c-.08-1.14-.12-2.29-.12-3.44Zm319.44,35.3c-9.53,9.56-22.19,14.83-35.69,14.84l-233.22.32h-.07c-13.47,0-26.14-5.24-35.67-14.75-7.13-7.12-11.87-15.99-13.8-25.65l48.03.17h0c1.24,0,2.38-.69,2.94-1.79.57-1.11.46-2.44-.27-3.45l-17.99-24.7,20.56-17.51c.72-.61,1.14-1.49,1.16-2.44.02-.94-.36-1.84-1.04-2.49l-21.15-19.79,18.3-21.52c.83-.98,1.02-2.34.5-3.5-.54-1.16-1.69-1.92-2.96-1.94l-49.09-.74v-55.68C9.44,120.79,57.89,46.94,124.76,21.38c1.53,27.23,24.16,48.91,51.76,48.91s50.19-21.62,51.76-48.79c66.71,25.66,115.02,99.42,115.02,186.18,0,4.5.04,26.75.1,55.67-.2-.05-.4-.06-.6-.06l-53.76.81c-1.28.02-2.43.78-2.95,1.94-.54,1.16-.34,2.53.49,3.5l18.3,21.52-21.15,19.79c-.68.64-1.06,1.55-1.04,2.49.02.95.44,1.82,1.16,2.44l20.56,17.51-17.99,24.7c-.73,1.01-.84,2.34-.27,3.45.57,1.1,1.71,1.79,2.94,1.79h0l53.43-.19c-1.96,9.5-6.65,18.23-13.65,25.26Zm14.58-31.83c-.16-.03-.33-.04-.5-.04h0l-47.36.18,15.95-21.91c1.02-1.39.79-3.33-.53-4.46l-20.08-17.1,20.74-19.41c1.29-1.2,1.4-3.21.26-4.54l-15.81-18.58,46.76-.71c.18,0,.35-.02.53-.06.05,25.6.12,55.52.17,82.75,0,1.31-.04,2.6-.14,3.89Z"/>
    <text class="cls-4" transform="translate(89.87 46.89) rotate(65.21)"><tspan x="0" y="0">k</tspan></text>
    <text class="cls-4" transform="translate(95.8 59.54) rotate(55.96)"><tspan x="0" y="0">a</tspan></text>
    <text class="cls-4" transform="translate(104.23 71.68) rotate(47.26)"><tspan x="0" y="0">p</tspan></text>
    <text class="cls-4" transform="translate(112.65 80.67) rotate(39.4)"><tspan x="0" y="0">p</tspan></text>
    <text class="cls-4" transform="translate(122.28 88.56) rotate(30.7)"><tspan x="0" y="0">a</tspan></text>
    <text class="cls-4" transform="translate(135 95.85) rotate(22.55)"><tspan x="0" y="0"> </tspan></text>
    <text class="cls-4" transform="translate(144.82 99.97) rotate(14.52)"><tspan x="0" y="0">c</tspan></text>
    <text class="cls-4" transform="translate(158.83 103.49) rotate(5.07)"><tspan x="0" y="0">o</tspan></text>
    <text class="cls-4" transform="translate(173.68 104.69) rotate(-4.35)"><tspan x="0" y="0">o</tspan></text>
    <text class="cls-4" transform="translate(188.53 103.42) rotate(-13.62)"><tspan x="0" y="0">k</tspan></text>
    <text class="cls-4" transform="translate(201.58 99.98) rotate(-19.76)"><tspan x="0" y="0">i</tspan></text>
    <text class="cls-4" transform="translate(206.79 98.3) rotate(-26.05)"><tspan x="0" y="0">e</tspan></text>
    <text class="cls-4" transform="translate(219.55 91.82) rotate(-34.06)"><tspan x="0" y="0"> </tspan></text>
    <text class="cls-4" transform="translate(228.25 85.92) rotate(-41.33)"><tspan x="0" y="0">s</tspan></text>
    <text class="cls-4" transform="translate(237.44 77.71) rotate(-49.1)"><tspan x="0" y="0">h</tspan></text>
    <text class="cls-4" transform="translate(245.42 68.51) rotate(-57.72)"><tspan x="0" y="0">o</tspan></text>
    <text class="cls-4" transform="translate(253.16 55.89) rotate(-66.48)"><tspan x="0" y="0">p</tspan></text>
    <path class="cls-3" d="m80.1,180.1c5.02,6.47,4.83,16.18-.49,28.3-.95,2-3.29,2.9-5.24,1.96-1.79-.92-2.7-3.25-1.75-5.26,2.95-7.12,5.03-15.37,1.23-20.37-2-2.66-5.61-4.28-9.68-5.05-2.95,8.69-6.3,18.39-10,27-.93,1.78-3.05,2.7-4.86,2-2.02-.94-2.93-3.13-1.99-5.06,3.23-7.69,6.37-16.73,9.03-24.7-2.63-.11-5.27.01-7.57.39-2.12.17-4.23-1.38-4.56-3.43-.4-2.13,1.14-4,3.21-4.4,2.89-.24,7.06-.59,11.56-.37,1.67-5.6,3.06-10.55,3.94-13.46.72-1.95,2.73-3.25,4.78-2.68,1.98.57,3.14,2.55,2.57,4.51l-3.87,12.71c5.31,1.11,10.36,3.47,13.69,7.91Zm16.68,8.35c-1.64,1.34-4.02,1.11-5.35-.74l-6.92-8.67c-1.33-1.85-1.1-4.22.76-5.54,1.64-1.34,4.01-.96,5.36.67l6.89,8.9c1.35,1.63,1.11,4.07-.75,5.39Z"/>
    <path class="cls-3" d="m176.92,171.41c-.81.41-1.78.28-2.46-.32l-.28-.25-2.35-2.13c-.85-.77-2.13-.77-2.98,0l-2.59,2.35c-.67.6-1.63.75-2.44.36l-.64-.3c-.81-.39-1.31-1.23-1.26-2.12l.02-.37.22-2.98c.09-1.16-.74-2.19-1.88-2.36l-3.42-.51c-.9-.14-1.63-.81-1.83-1.7l-.16-.7c-.2-.89.15-1.81.9-2.33l.31-.21,2.5-1.67c.97-.65,1.27-1.95.68-2.97l-1.66-2.83c-.46-.78-.4-1.76.16-2.48l.43-.56c.56-.72,1.49-1.02,2.36-.78l.36.1,3.06.92c1.1.33,2.27-.23,2.7-1.3l1.27-3.16c.34-.83,1.14-1.38,2.04-1.39h.7c.9-.01,1.72.53,2.07,1.36l.14.34,1.15,2.84c.43,1.06,1.6,1.63,2.7,1.3l3.38-1.01c.87-.26,1.8.03,2.37.74l.44.55c.57.71.65,1.69.2,2.48l-.19.33-1.49,2.54c-.59,1.01-.3,2.31.68,2.97l2.78,1.86c.75.51,1.12,1.42.93,2.31l-.15.7c-.19.89-.91,1.57-1.8,1.72l-.37.06-3.09.46c-1.15.17-1.97,1.2-1.88,2.36l.25,3.29c.07.9-.41,1.74-1.22,2.15l-.63.32Z"/>
    <path class="cls-3" d="m190.14,202.1c-1.02.42-2.14-.11-2.56-1.13-1.52-3.74-3.62-6.23-6.23-7.27-2.86-1.23-5.73-.36-7.54.58-7.07,3.49-5.05,9.76-4.84,10.45l.03.11c.18.59.89,2.29,2.1,2.87.66.29,1.42.26,2.36-.15,2.81-1.05,2.69-5.21,2.45-7.63-.25-1.07.52-2.07,1.46-2.36,1.05-.32,2.05.45,2.26,1.41.51,3.29.75,9.97-4.81,12.17-2.39.92-4.23.53-5.44-.06-2.81-1.32-3.87-4.55-4.05-5.14l-.11-.35c-1.1-3.6-.99-10.78,6.83-14.81,3.77-1.8,7.4-2.06,10.79-.69,2.49,1.04,5.95,3.61,8.38,9.67.39.91-.15,2.03-1.09,2.32Z"/>
    <path class="cls-3" d="m118.91,171.53l.36,21.1c0,2.15-1.65,3.79-3.58,3.93-2.15,0-3.93-1.57-3.93-3.72l-.36-21.1c-.21-2,1.57-3.79,3.58-3.79,2.15-.14,3.72,1.65,3.93,3.58Zm42.2,18.95c-.57,2-2.5,3.07-4.5,2.72-.14-.21-.36-.21-.5-.21-.57-.14-1.07.21-1.07.72-.93,5.36-2.5,10.01-5.58,12.66-4.79,4.29-10.51,5.58-15.73,3.43-4.65-1.79-8.01-5.94-8.37-10.23-.57-6.58,2.15-10.3,4.65-12.3,3.72-3,9.3-4.08,16.95-3.36.57.14,1.07-.36,1.07-.93-.14-2.86-.36-5.72-.72-8.73h-10.87c-2.15,0-3.79-1.64-3.79-3.58,0-2.15,1.65-3.79,3.79-3.79h9.8c-.36-1.79-.5-3.58-.86-5.15-.57-2,.72-3.93,2.65-4.51,2-.36,3.93.93,4.51,2.86.36,1.79.72,4.15,1.22,6.79h3.22c2,0,3.58,1.65,3.58,3.58s-1.57,3.79-3.58,3.79h-2.15c.36,3.22.57,6.58.71,10.01,0,.72.36,1.22.93,1.22.72.21,1.43.36,2.15.57,1.93.5,3,2.5,2.5,4.43Zm-14.52-.26c-7.73-.75-11.26.6-12.76,1.88-.6.6-2.48,1.88-2.1,6.23.23,1.43,1.73,3.3,3.98,4.28,1.5.52,4.88,1.13,8.41-2.1,1.88-1.65,3-4.8,3.38-8.93.22-.6-.38-1.13-.9-1.35Zm30.53-33.06c0,3.73-3.05,6.78-6.78,6.78s-6.78-3.05-6.78-6.78,3.05-6.78,6.78-6.78,6.78,3.05,6.78,6.78Zm-3.78,0c0-1.65-1.35-3-3-3s-3,1.35-3,3,1.28,3,3,3,3-1.28,3-3Z"/>
    <path class="cls-3" d="m212.05,204.16c1.41,1.28,1.41,3.52.32,4.99-1.28,1.41-3.52,1.6-4.8.32-8.64-8-16.31-18.23-19.19-22.07-1.47-2.24-1.47-5.12.32-7.17l15.48-18.87c1.28-1.47,3.39-1.6,4.8-.32,1.47,1.09,1.79,3.33.51,4.8l-14.39,17.4c-.32.51-.51.96-.19,1.47,3.39,4.29,9.92,12.79,17.14,19.45Z"/>
    <path class="cls-3" d="m106,208.96c-.43.91-1.52,1.2-2.43.72-.83-.54-1.19-1.63-.72-2.54,1.99-3.88,2.54-6.77,1.34-8.22-1.99-2.43-9.24-1.45-13.66-.25-1.01.25-1.99-.29-2.28-1.27-.36-.91.29-1.99,1.2-2.17,4.17-1.2,13.84-3.19,17.57,1.45,2.17,2.72,1.88,6.7-1.01,12.28Z"/>
    <path class="cls-3" d="m235.17,209.62c-.54,1.12-1.88,1.48-2.99.89-1.03-.67-1.47-2.01-.89-3.13,2.46-4.78,3.13-8.36,1.65-10.15-2.46-2.99-11.4-1.79-16.85-.31-1.25.31-2.46-.36-2.82-1.56-.45-1.12.36-2.46,1.48-2.68,5.14-1.48,17.07-3.93,21.68,1.79,2.68,3.35,2.32,8.27-1.25,15.15Z"/>
    <path class="cls-3" d="m273.95,169.22c.45,1.78-.68,3.67-2.32,4.09l-7.24,1.84,3.2,8.43c.78,2.25-.51,4.89-2.91,5.64-2.91.95-9.2,3.74-10.18,7.63-.73,2.64,1.09,5.68,3.36,8.25,1.26,1.64,1.1,3.78-.09,5.14-1.36,1.54-3.7,1.43-4.91-.01-2.76-3.15-4.54-5.99-5.29-8.95-.55-2.17-.53-4.28.06-6.11,1.42-5.97,7.17-9.53,11.48-11.33.41-.31.62-.86.49-1.39-.47-1.28-1.2-3.34-2.11-5.56l-19.74,5.02c-1.78.45-3.67-.68-4.13-2.45s.71-3.54,2.49-4l19.08-4.85c-.67-2.07-1.58-4.29-2.28-6.21l-12.3,3.13c-1.84.47-3.67-.68-4.13-2.45-.42-1.64.64-3.53,2.49-3.99l11.64-2.96c-.12-.46-.38-.95-.5-1.41-.7-1.92.2-3.9,2.12-4.6,1.81-.6,3.92.26,4.62,2.19l.67,2.07,3.29-.84c1.84-.47,3.67.68,4.09,2.32.45,1.78-.61,3.66-2.45,4.13l-2.63.67,2.28,6.21,7.89-2.01c1.64-.42,3.49.51,3.96,2.35Z"/>
    <path class="cls-3" d="m231.78,237.21h-107.77c-6.93,0-11.96,3.32-11.96,7.9s5.25,7.89,11.96,7.89h107.77c6.71,0,11.96-3.47,11.96-7.89s-5.03-7.9-11.96-7.9Z"/>
    <path class="cls-3" d="m276.1,193.62c-.53,0-1.06-.12-1.56-.39-1.64-.86-2.27-2.89-1.4-4.53l6.59-12.49c.45-.86,1.26-1.48,2.21-1.7.95-.22,1.95-.01,2.73.56l8.83,6.46,6.06-8.2c.99-1.34,2.81-1.75,4.28-.97l10.52,5.62c1.63.87,2.25,2.9,1.38,4.54-.87,1.63-2.9,2.25-4.54,1.38l-7.97-4.26-6.32,8.56c-1.1,1.48-3.19,1.8-4.68.72l-8.39-6.14-4.78,9.06c-.6,1.14-1.76,1.79-2.97,1.79Z"/>
    <text class="cls-2" transform="translate(91.1 42.95) rotate(65.23)"><tspan x="0" y="0">k</tspan></text>
    <text class="cls-2" transform="translate(96.9 55.36) rotate(56.02)"><tspan x="0" y="0">a</tspan></text>
    <text class="cls-2" transform="translate(105.15 67.28) rotate(47.37)"><tspan x="0" y="0">p</tspan></text>
    <text class="cls-2" transform="translate(113.39 76.11) rotate(39.55)"><tspan x="0" y="0">p</tspan></text>
    <text class="cls-2" transform="translate(122.79 83.87) rotate(30.89)"><tspan x="0" y="0">a</tspan></text>
    <text class="cls-2" transform="translate(135.28 91.08) rotate(22.77)"><tspan x="0" y="0"> </tspan></text>
    <text class="cls-2" transform="translate(144.86 95.15) rotate(14.79)"><tspan x="0" y="0">c</tspan></text>
    <text class="cls-2" transform="translate(158.6 98.67) rotate(5.37)"><tspan x="0" y="0">o</tspan></text>
    <text class="cls-2" transform="translate(173.15 99.93) rotate(-4.01)"><tspan x="0" y="0">o</tspan></text>
    <text class="cls-2" transform="translate(187.73 98.77) rotate(-13.24)"><tspan x="0" y="0">k</tspan></text>
    <text class="cls-2" transform="translate(200.55 95.48) rotate(-19.34)"><tspan x="0" y="0">i</tspan></text>
    <text class="cls-2" transform="translate(205.65 93.89) rotate(-25.6)"><tspan x="0" y="0">e</tspan></text>
    <text class="cls-2" transform="translate(218.22 87.64) rotate(-33.57)"><tspan x="0" y="0"> </tspan></text>
    <text class="cls-2" transform="translate(226.81 81.92) rotate(-40.81)"><tspan x="0" y="0">s</tspan></text>
    <text class="cls-2" transform="translate(235.89 73.96) rotate(-48.54)"><tspan x="0" y="0">h</tspan></text>
    <text class="cls-2" transform="translate(243.8 65.02) rotate(-57.12)"><tspan x="0" y="0">o</tspan></text>
    <text class="cls-2" transform="translate(251.53 52.72) rotate(-65.85)"><tspan x="0" y="0">p</tspan></text>
    <path class="cls-1" d="m77.97,177.61c4.95,6.38,4.76,15.94-.48,27.88-.93,1.97-3.25,2.85-5.16,1.93-1.77-.91-2.66-3.21-1.72-5.18,2.91-7.01,4.96-15.14,1.21-20.07-1.97-2.62-5.53-4.22-9.53-4.98-2.91,8.56-6.21,18.11-9.86,26.6-.91,1.75-3,2.66-4.79,1.97-1.99-.93-2.89-3.08-1.96-4.98,3.18-7.58,6.28-16.49,8.89-24.34-2.59-.1-5.2.01-7.46.38-2.09.17-4.17-1.36-4.49-3.38-.39-2.1,1.13-3.94,3.17-4.34,2.84-.24,6.96-.58,11.39-.37,1.65-5.51,3.01-10.39,3.88-13.26.71-1.92,2.69-3.2,4.71-2.64,1.95.56,3.1,2.51,2.54,4.45l-3.81,12.53c5.24,1.1,10.2,3.42,13.49,7.8Zm16.43,8.23c-1.61,1.32-3.96,1.09-5.27-.73l-6.81-8.55c-1.31-1.82-1.08-4.16.75-5.45,1.61-1.32,3.95-.94,5.28.66l6.79,8.77c1.33,1.6,1.09,4.01-.74,5.31Z"/>
    <path class="cls-5" d="m173.35,169.04c-.8.4-1.76.28-2.42-.31l-.28-.24-2.31-2.1c-.83-.75-2.1-.75-2.94,0l-2.56,2.31c-.66.59-1.61.73-2.41.35l-.63-.3c-.8-.38-1.29-1.21-1.24-2.09l.02-.37.22-2.93c.08-1.14-.72-2.16-1.86-2.32l-3.37-.5c-.89-.13-1.6-.8-1.81-1.67l-.16-.68c-.2-.87.15-1.78.89-2.29l.31-.21,2.46-1.65c.96-.64,1.25-1.92.67-2.92l-1.63-2.79c-.45-.77-.39-1.74.16-2.44l.43-.55c.55-.71,1.47-1.01,2.33-.76l.36.1,3.01.9c1.08.32,2.23-.23,2.66-1.28l1.25-3.11c.33-.82,1.13-1.36,2.01-1.37h.69c.89-.01,1.69.52,2.03,1.34l.14.34,1.13,2.8c.42,1.05,1.57,1.6,2.66,1.28l3.33-1c.85-.26,1.78.03,2.33.73l.44.55c.56.7.64,1.67.2,2.45l-.18.32-1.47,2.5c-.59,1-.29,2.28.67,2.92l2.74,1.84c.74.5,1.11,1.4.92,2.27l-.15.69c-.19.88-.89,1.55-1.78,1.7l-.37.06-3.05.46c-1.13.17-1.94,1.18-1.86,2.32l.24,3.25c.07.88-.41,1.72-1.2,2.12l-.62.31Z"/>
    <path class="cls-1" d="m186.37,199.28c-1,.42-2.1-.11-2.52-1.11-1.5-3.68-3.57-6.14-6.14-7.16-2.82-1.21-5.64-.35-7.43.57-6.97,3.44-4.97,9.61-4.76,10.3l.03.1c.18.59.88,2.25,2.07,2.83.65.29,1.39.25,2.33-.14,2.77-1.03,2.65-5.14,2.41-7.51-.25-1.05.51-2.04,1.44-2.32,1.03-.32,2.02.44,2.23,1.39.5,3.24.74,9.83-4.74,11.99-2.36.91-4.17.52-5.36-.06-2.77-1.3-3.81-4.48-3.99-5.07l-.11-.34c-1.08-3.55-.98-10.62,6.73-14.59,3.71-1.77,7.29-2.03,10.63-.68,2.46,1.02,5.87,3.56,8.25,9.53.39.9-.14,2-1.07,2.28Z"/>
    <path class="cls-1" d="m116.2,169.16l.35,20.78c0,2.11-1.62,3.74-3.52,3.88-2.11,0-3.87-1.55-3.87-3.66l-.35-20.78c-.21-1.97,1.55-3.73,3.52-3.73,2.11-.14,3.66,1.62,3.87,3.52Zm41.57,18.67c-.56,1.97-2.46,3.03-4.44,2.68-.14-.21-.35-.21-.49-.21-.56-.14-1.06.21-1.06.7-.92,5.28-2.47,9.86-5.5,12.47-4.72,4.23-10.36,5.5-15.5,3.38-4.58-1.76-7.89-5.85-8.24-10.08-.56-6.48,2.11-10.15,4.58-12.12,3.67-2.96,9.16-4.02,16.7-3.31.56.14,1.06-.35,1.06-.92-.14-2.82-.35-5.64-.7-8.6h-10.71c-2.11,0-3.74-1.62-3.74-3.52,0-2.11,1.62-3.73,3.74-3.73h9.65c-.35-1.76-.49-3.52-.85-5.07-.56-1.97.7-3.88,2.61-4.44,1.97-.35,3.87.92,4.44,2.82.35,1.76.7,4.09,1.2,6.69h3.17c1.97,0,3.52,1.62,3.52,3.52s-1.55,3.73-3.52,3.73h-2.11c.35,3.17.56,6.48.7,9.86,0,.7.35,1.2.92,1.2.7.21,1.41.35,2.11.56,1.9.49,2.96,2.47,2.46,4.37Zm-14.31-.25c-7.62-.74-11.09.59-12.57,1.85-.59.59-2.44,1.85-2.07,6.14.22,1.41,1.7,3.25,3.92,4.22,1.48.52,4.81,1.11,8.28-2.07,1.85-1.63,2.96-4.73,3.33-8.8.22-.59-.37-1.11-.89-1.33Zm30.08-32.57c0,3.67-3,6.68-6.68,6.68s-6.68-3.01-6.68-6.68,3-6.68,6.68-6.68,6.68,3.01,6.68,6.68Zm-3.72,0c0-1.63-1.33-2.96-2.96-2.96s-2.96,1.33-2.96,2.96,1.26,2.96,2.96,2.96,2.96-1.26,2.96-2.96Z"/>
    <path class="cls-1" d="m207.95,201.31c1.39,1.26,1.39,3.47.31,4.92-1.26,1.39-3.47,1.58-4.73.31-8.51-7.88-16.07-17.96-18.91-21.74-1.45-2.21-1.45-5.04.31-7.06l15.25-18.59c1.26-1.45,3.34-1.58,4.73-.32,1.45,1.07,1.76,3.28.5,4.73l-14.18,17.14c-.31.5-.5.95-.19,1.45,3.34,4.22,9.77,12.6,16.89,19.16Z"/>
    <path class="cls-1" d="m103.48,206.03c-.43.89-1.5,1.18-2.39.71-.82-.54-1.18-1.61-.71-2.5,1.96-3.82,2.5-6.67,1.32-8.1-1.96-2.39-9.1-1.43-13.45-.25-1,.25-1.96-.29-2.25-1.25-.36-.89.29-1.96,1.18-2.14,4.1-1.18,13.63-3.14,17.31,1.43,2.14,2.68,1.86,6.6-1,12.1Z"/>
    <path class="cls-1" d="m230.73,206.68c-.53,1.1-1.85,1.45-2.95.88-1.01-.66-1.45-1.98-.88-3.08,2.42-4.71,3.08-8.23,1.63-9.99-2.42-2.95-11.23-1.76-16.6-.31-1.23.31-2.42-.35-2.77-1.54-.44-1.1.35-2.42,1.45-2.64,5.06-1.45,16.82-3.87,21.36,1.76,2.64,3.3,2.29,8.15-1.23,14.93Z"/>
    <path class="cls-1" d="m268.94,166.89c.45,1.75-.67,3.62-2.29,4.03l-7.13,1.81,3.15,8.31c.77,2.22-.5,4.82-2.86,5.56-2.87.94-9.07,3.69-10.03,7.52-.72,2.6,1.08,5.59,3.31,8.13,1.24,1.62,1.09,3.73-.09,5.06-1.34,1.51-3.64,1.41-4.83-.01-2.72-3.1-4.47-5.9-5.21-8.82-.54-2.14-.52-4.22.06-6.02,1.4-5.88,7.07-9.39,11.31-11.16.4-.31.61-.85.48-1.36-.46-1.26-1.18-3.29-2.08-5.47l-19.44,4.95c-1.75.45-3.62-.67-4.07-2.42s.7-3.49,2.45-3.94l18.8-4.78c-.66-2.04-1.56-4.23-2.25-6.12l-12.12,3.08c-1.81.46-3.62-.67-4.07-2.42-.41-1.62.63-3.47,2.45-3.94l11.47-2.92c-.12-.45-.38-.94-.49-1.39-.69-1.89.19-3.84,2.09-4.53,1.78-.59,3.86.26,4.55,2.16l.66,2.04,3.24-.82c1.81-.46,3.62.67,4.03,2.29.45,1.75-.6,3.6-2.42,4.07l-2.59.66,2.25,6.12,7.78-1.98c1.62-.41,3.44.5,3.9,2.32Z"/>
    <path class="cls-5" d="m227.39,233.87h-106.17c-6.83,0-11.78,3.27-11.78,7.78s5.18,7.78,11.78,7.78h106.17c6.61,0,11.78-3.42,11.78-7.78s-4.96-7.78-11.78-7.78Z"/>
    <path class="cls-5" d="m271.06,190.93c-.52,0-1.05-.12-1.54-.38-1.61-.85-2.23-2.85-1.38-4.46l6.49-12.31c.45-.85,1.24-1.46,2.18-1.68.93-.22,1.92-.01,2.69.55l8.7,6.36,5.97-8.08c.97-1.32,2.77-1.72,4.21-.95l10.37,5.54c1.61.86,2.22,2.86,1.36,4.47-.86,1.61-2.86,2.22-4.47,1.36l-7.85-4.19-6.22,8.43c-1.08,1.46-3.14,1.78-4.61.7l-8.26-6.04-4.7,8.92c-.59,1.12-1.74,1.76-2.92,1.76Z"/>
  </g>
</svg>