<?xml version="1.0" encoding="UTF-8"?>
<svg id="_レイヤー_2" data-name="レイヤー 2" xmlns="http://www.w3.org/2000/svg" xmlns:xlink="http://www.w3.org/1999/xlink" viewBox="0 0 44 29.97">
  <defs>
    <style>
      .cls-1 {
        fill: #ded69b;
      }

      .cls-2, .cls-3, .cls-4 {
        fill: none;
      }

      .cls-5 {
        fill: #a6e39d;
      }

      .cls-3 {
        clip-path: url(#clippath);
      }

      .cls-4 {
        clip-path: url(#clippath-1);
      }
    </style>
    <clipPath id="clippath">
      <rect class="cls-2" x="35.03" y="10.63" width="8.97" height="8.72"/>
    </clipPath>
    <clipPath id="clippath-1">
      <rect class="cls-2" x="35.03" y="10.63" width="8.97" height="8.72"/>
    </clipPath>
  </defs>
  <g id="_レイヤー_1-2" data-name="レイヤー 1">
    <path class="cls-5" d="m37.96,15.44s.01-.06.01-.08c0-.02,0-.03,0-.05,0-.03,0-.05,0-.08,0-.02,0-.04,0-.06,0-.02,0-.04,0-.06,0-.04,0-.07,0-.11,0,0,0,0,0-.01s0,0,0-.01c0-.04,0-.07,0-.11,0-.02,0-.04,0-.06,0-.02,0-.04,0-.06,0-.03,0-.05,0-.08,0-.02,0-.03,0-.05,0-.03,0-.06-.01-.08,0-.01,0-.03,0-.04,0-.03-.01-.06-.02-.08,0-.01,0-.03,0-.04,0-.03-.01-.05-.02-.08,0-.01,0-.03-.01-.04,0-.02-.02-.05-.02-.07,0-.02-.01-.03-.02-.05,0-.02-.02-.04-.02-.06,0-.02-.01-.04-.02-.05,0-.02-.02-.04-.02-.06,0-.02-.02-.04-.03-.06,0-.02-.02-.03-.02-.05-.01-.02-.02-.04-.03-.07,0-.01-.01-.03-.02-.04-.01-.02-.03-.05-.04-.07,0-.01-.02-.02-.02-.04-.01-.02-.03-.05-.04-.07,0-.01-.02-.02-.02-.04-.02-.02-.03-.04-.05-.07,0-.01-.02-.03-.03-.04-.02-.02-.03-.04-.05-.06-.01-.02-.03-.03-.04-.05-.01-.02-.03-.03-.04-.05-.03-.03-.06-.06-.09-.09,0,0,0,0,0,0L24.83.75c-1-1-2.62-1-3.63,0-1,1-1,2.62,0,3.63l8.04,8.04H2.56c-1.42,0-2.56,1.15-2.56,2.56s1.15,2.56,2.56,2.56h26.69l-8.04,8.04c-1,1-1,2.62,0,3.63.5.5,1.16.75,1.81.75s1.31-.25,1.81-.75l12.42-12.42s.06-.06.09-.09c.01-.01.02-.03.04-.04.02-.02.03-.04.05-.05.02-.02.03-.04.04-.06.01-.01.02-.03.03-.04.02-.02.03-.04.05-.06,0-.01.02-.02.03-.04.02-.02.03-.05.04-.07,0-.01.02-.02.02-.04.01-.02.03-.05.04-.07,0-.01.02-.03.02-.04.01-.02.02-.04.03-.07,0-.02.02-.03.02-.05,0-.02.02-.04.03-.06,0-.02.02-.04.02-.06,0-.02.01-.04.02-.05,0-.02.02-.04.02-.07,0-.02.01-.03.02-.05,0-.02.02-.05.02-.07,0-.01,0-.03.01-.04,0-.03.01-.05.02-.08,0,0,0,0,0,0,0,0,0-.02,0-.03,0-.03.01-.06.02-.08,0-.01,0-.03,0-.04Z"/>
    <g id="_アートワーク_4" data-name="アートワーク 4">
      <g class="cls-3">
        <g class="cls-4">
          <path class="cls-1" d="m39.52,14.34c-.37,0-.64.29-.64.64s.27.64.64.64.64-.27.64-.64-.29-.64-.64-.64"/>
          <path class="cls-1" d="m42.63,15.27l-.6-.4c-.21-.14-.27-.42-.15-.64l.32-.54.04-.07c.1-.17.08-.38-.04-.53l-.1-.12c-.12-.15-.32-.21-.51-.16l-.72.22c-.24.07-.49-.05-.58-.28l-.25-.61-.03-.07c-.07-.18-.25-.29-.44-.29h-.15c-.19,0-.37.12-.44.3l-.27.68c-.09.23-.34.35-.58.28l-.65-.2-.08-.02c-.19-.05-.39.01-.51.17l-.09.12c-.12.15-.13.36-.03.53l.36.61c.13.22.06.5-.15.64l-.53.36-.07.05c-.16.11-.24.31-.19.5l.03.15c.04.19.2.33.39.36l.73.11c.25.04.42.26.4.51l-.05.64v.08c-.01.19.09.37.27.45l.14.06c.17.08.38.05.52-.08l.56-.5c.18-.16.46-.16.64,0l.5.46.06.05c.15.13.35.15.53.07l.13-.07c.17-.09.28-.27.26-.46l-.05-.71c-.02-.25.16-.47.4-.51l.66-.1h.08c.19-.05.35-.19.39-.38l.03-.15c.04-.19-.04-.39-.2-.49m-3.12,1.16c-.8,0-1.45-.65-1.45-1.45s.65-1.45,1.45-1.45,1.45.65,1.45,1.45-.65,1.45-1.45,1.45"/>
        </g>
      </g>
    </g>
  </g>
</svg>