<?xml version="1.0" encoding="UTF-8"?>
<svg id="_レイヤー_2" data-name="レイヤー 2" xmlns="http://www.w3.org/2000/svg" viewBox="0 0 301.43 301.43">
  <defs>
    <style>
      .cls-1 {
        fill: #f5ca44;
      }

      .cls-2 {
        fill: #fdfbdf;
        stroke: #fff;
        stroke-miterlimit: 10;
        stroke-width: 30px;
      }

      .cls-3 {
        fill: #ef803a;
      }

      .cls-4 {
        fill: #f39800;
        opacity: .3;
      }

      .cls-5 {
        fill: #e7398e;
      }

      .cls-6 {
        fill: #481c0d;
      }
    </style>
  </defs>
  <g id="_レイヤー_1-2" data-name="レイヤー 1">
    <g>
      <circle class="cls-2" cx="150.71" cy="150.71" r="135.71"/>
      <path class="cls-4" d="m150.71,51.2c-54.79,0-99.21,44.42-99.21,99.21s44.42,99.21,99.21,99.21,99.21-44.42,99.21-99.21-44.42-99.21-99.21-99.21Zm57.12,85.93s.03,4.13-2.42,6.65c-4.15,4.28-17.84,9.77-22.22,8,0,0,1.82,6.34,0,6.34-.28,0,12,7.76.75,11.76-3.88.87-6.93-1.21-6.93-5.39,0-.42-16.89,5.54-25.5,5.74-8.61.2-21.94-.87-23.29-2.22-.3-.3-14.72,12.54-18.61,2.86-.83-2.07.99-7.18,8.71-8.01,0,0-1.66-3.35-1.66-5.03,0-.63-20.28,3.81-21.94-5.34s5.48-11.31,5.98-11.81-.34-4.65,2.44-7.43c1.21-1.21-3.05-2.03.45-5.07,1.98-1.73,5.26.53,4.36,1.43-.08.08-.13.13-.16.16.28-.23,2.48-1.89,6.76-1.89,5.39,0,6.07.8,6.86,0s4.87-2.59,7.59-.8c2.31,1.53,2.07,6.6.09,6.6s2.35,1.03,2.35,5-1.16-3.1,16.37-2.47c17.53.63,19.46,3.05,19.46,3.05,0,0,1.31-1.5,2.61-1.5s3.79.77,5.26,1.34c1.47.57,5.83,2.23,8.56,2.23,2.53,0,12.39-.18,20.47-5.66.7-.48,4.04-1.75,3.64,1.47Z"/>
      <g>
        <path class="cls-3" d="m33.48,173.31l-11.24,2.94c-1.29.34-2.43.16-3.44-.52-1.18-.81-1.97-1.97-2.37-3.5-.59-2.25-.18-4.01,1.23-5.3.51-.45,1.14-.77,1.89-.97l53.04-13.88c1.07-.28,2.06-.18,2.95.3,1.36.7,2.26,1.92,2.72,3.67.57,2.17.22,3.9-1.04,5.21-.52.54-1.16.91-1.94,1.11l-29.95,7.84,19.8,13.87c1.33.94,2.17,2.05,2.5,3.33.32,1.2.14,2.39-.52,3.57-.85,1.45-1.97,2.36-3.36,2.72-1.39.36-2.71.08-3.96-.85l-13.43-10-12.33,18.97c-.87,1.28-2.01,2.11-3.43,2.48-1.69.44-3.16.16-4.43-.86-1.23-.97-2.02-2.13-2.37-3.5-.41-1.55-.08-3.05.97-4.5l13.65-18.5-4.94-3.64Z"/>
        <path class="cls-1" d="m92.57,226.51l2.04-1.78c1.7-1.51,3.56-1.31,5.56.59,1.6,1.53,2.12,3.19,1.56,4.98-.2.61-.55,1.18-1.04,1.7l-25.54,26.85c-.65.68-1.37,1.14-2.17,1.38-1.54.41-3.01-.05-4.41-1.39-1.94-1.85-2.1-3.93-.48-6.24l1.64-2.39c-5.38,1.68-10.47.23-15.29-4.34-5.13-4.88-7.12-10.7-5.96-17.47.82-4.8,3.21-9.28,7.18-13.45,3.76-3.95,8.03-6.43,12.82-7.45,3.95-.86,7.75-.6,11.41.77,2.55.93,4.81,2.35,6.8,4.23,4.45,4.23,6.41,8.9,5.87,14Zm-12.88,12.27l2.29-2.41c2.12-2.22,3.14-4.95,3.08-8.18-.06-3.27-1.19-5.94-3.37-8.02-2.53-2.4-5.56-3.29-9.11-2.65-3.14.57-6.06,2.27-8.77,5.12-2.33,2.45-3.84,5-4.54,7.66-1.05,4.08-.11,7.52,2.84,10.32,1.82,1.74,4.15,2.63,6.97,2.67,4.13.07,7.67-1.43,10.6-4.52Z"/>
        <path class="cls-5" d="m122.91,269.24l10.53-25.99c1.28-3.17,3.53-4.57,6.75-4.2,3.3.38,5.21,2.25,5.75,5.63l4.35,27.69,10.92-26.82c1.08-2.63,2.86-3.81,5.33-3.53.88.1,1.75.41,2.61.92,1.9,1.16,2.74,2.69,2.53,4.59-.08.66-.26,1.32-.56,1.98l-14.37,32.15c-1.5,3.37-3.98,4.85-7.44,4.45-3.63-.41-5.77-2.64-6.42-6.67l-4.28-26.14-10.07,24.5c-1.55,3.78-4.13,5.46-7.76,5.04-3.46-.4-5.55-2.4-6.25-6.02l-6.74-34.57c-.14-.74-.17-1.45-.09-2.14.2-1.79,1.31-3.04,3.31-3.76,1.04-.35,2.03-.48,2.97-.37,2.45.28,3.9,1.82,4.36,4.63l4.58,28.6Z"/>
        <path class="cls-1" d="m207.97,226.97l-1.15-2.45c-.98-2.05-.28-3.78,2.11-5.18,1.91-1.12,3.65-1.16,5.22-.13.53.36.98.85,1.34,1.47l18.75,31.97c.48.81.72,1.63.72,2.46-.03,1.59-.88,2.87-2.55,3.85-2.31,1.36-4.36.94-6.13-1.26l-1.84-2.24c.13,5.63-2.67,10.13-8.4,13.49-6.11,3.58-12.25,3.88-18.43.9-4.38-2.11-8.03-5.65-10.94-10.62-2.76-4.7-3.97-9.49-3.62-14.38.26-4.04,1.56-7.62,3.89-10.75,1.6-2.19,3.58-3.98,5.95-5.37,5.3-3.11,10.32-3.7,15.08-1.77Zm8.24,15.76l-1.68-2.86c-1.55-2.65-3.89-4.39-7.01-5.22-3.16-.84-6.04-.5-8.64,1.03-3.01,1.76-4.69,4.44-5.06,8.02-.32,3.17.51,6.45,2.5,9.84,1.71,2.91,3.74,5.07,6.11,6.47,3.63,2.14,7.2,2.18,10.71.12,2.17-1.27,3.67-3.26,4.49-5.96,1.21-3.95.74-7.76-1.42-11.44Z"/>
        <path class="cls-3" d="m269.78,197.2c3.18,5.58,3.28,11.36.29,17.35-2.36,4.73-5.91,7.57-10.65,8.51-3.65.75-7.95-.12-12.9-2.59l-20.61-10.29c-.99-.49-1.68-1.21-2.08-2.15-.59-1.47-.47-3.06.39-4.77.96-1.93,2.33-3,4.1-3.2.82-.09,1.62.07,2.41.46l19.68,9.82c2.18,1.09,4.15,1.66,5.92,1.7,2.92.1,5.02-1.13,6.29-3.68,1.42-2.85,1.31-6.18-.34-10-1.25-2.88-2.96-4.86-5.11-5.94l-17.94-8.95c-1.06-.53-1.78-1.32-2.16-2.37-.51-1.4-.35-2.91.46-4.55.96-1.93,2.33-3,4.1-3.2.82-.09,1.62.07,2.41.46l32.83,16.38c.99.49,1.71,1.15,2.17,1.97.67,1.2.64,2.53-.09,3.99-1.17,2.35-3.08,3.08-5.73,2.19l-3.45-1.17Z"/>
        <path class="cls-1" d="m239.42,143.61c-.42-5.99.5-10.88,2.75-14.67,1.21-2.05,2.75-3.15,4.6-3.28,1.08-.08,2.11.18,3.09.78,1.31.82,2.01,2.02,2.12,3.59.07,1.02-.33,2.19-1.21,3.5-1.98,2.97-2.85,6.18-2.61,9.63.31,4.47,1.74,6.62,4.28,6.44,1.49-.1,2.59-.99,3.31-2.65.21-.54.48-1.46.8-2.76,1.76-7.64,3.03-12.38,3.79-14.2,1.97-4.77,5.46-7.33,10.49-7.69,4.67-.33,8.37,1.27,11.11,4.79,2.38,3.08,3.76,7.38,4.15,12.9.44,6.32-.62,11.62-3.21,15.91-1.69,2.78-3.56,4.25-5.6,4.39-.97.07-1.93-.18-2.88-.75-1.3-.79-2.01-1.92-2.11-3.39-.08-1.16.33-2.28,1.22-3.37,2.74-3.3,3.94-7.32,3.6-12.07-.35-4.94-1.85-7.32-4.5-7.13-1.79.13-3.21,1.47-4.25,4.04-.63,1.65-1.67,5.6-3.12,11.83-1.55,6.77-5.36,10.36-11.43,10.79-4.75.33-8.51-1.69-11.29-6.07-1.78-2.79-2.82-6.31-3.11-10.56Z"/>
        <path class="cls-5" d="m224.9,100.89c-3.45-5.21-4.56-10.65-3.33-16.31,1.29-5.93,4.87-10.84,10.76-14.73,4.64-3.07,9.34-4.62,14.09-4.65,7.31-.03,13.17,3.28,17.57,9.93,3.85,5.81,4.86,11.75,3.02,17.81-1.58,5.29-5.11,9.75-10.6,13.39-5.88,3.89-11.77,5.27-17.67,4.13-5.73-1.09-10.34-4.27-13.84-9.56Zm7.58-4.87c1.94,2.93,4.74,4.4,8.39,4.4,3.05,0,6.21-1.07,9.46-3.23,2.47-1.63,4.37-3.45,5.69-5.46,2.61-3.98,2.67-7.84.2-11.58-1.97-2.98-4.74-4.46-8.32-4.45-3.08.01-6.28,1.12-9.6,3.32-3.37,2.23-5.62,4.8-6.75,7.7-1.31,3.29-1,6.39.92,9.29Z"/>
        <path class="cls-1" d="m212.5,48.95c-1.27-.78-2.28-1.89-3.03-3.32-1.41-2.78-1.3-5.49.32-8.13,1.13-1.84,2.75-3.05,4.86-3.64,2.32-.65,4.53-.34,6.62.95,1.23.75,2.19,1.77,2.9,3.05,1.54,2.83,1.46,5.62-.23,8.38-1.33,2.17-3.23,3.46-5.69,3.86-2.05.33-3.98-.06-5.77-1.16Z"/>
        <path class="cls-3" d="m159.54,61.33c-5.93-.77-10.4-3.09-13.41-6.94-1.55-1.99-2.22-3.87-1.98-5.66.18-1.34.87-2.43,2.1-3.24,1.1-.72,2.28-1,3.54-.84,1.43.19,2.54.93,3.35,2.24,1.96,3.16,4.52,4.94,7.67,5.35,3.59.47,6.67-.67,9.23-3.4,2.17-2.31,3.5-5.38,4-9.19.5-3.87-.12-7.24-1.86-10.12-1.93-3.15-4.57-4.95-7.92-5.38-3.21-.42-6.33.83-9.36,3.76-.96.96-2.09,1.36-3.38,1.19-1.21-.16-2.28-.77-3.23-1.84-1.1-1.2-1.54-2.63-1.33-4.27.19-1.45,1.01-2.83,2.46-4.12,3.98-3.53,9.32-4.85,16.05-3.98,6.86.89,12.11,3.89,15.74,9,3.44,4.83,4.73,10.61,3.85,17.33-.56,4.28-2.01,8.05-4.36,11.32-3.68,5.13-8.67,8.08-14.96,8.85-2.01.24-4.08.22-6.19-.05Z"/>
        <path class="cls-1" d="m117.1,67.54c-5.79,2.35-11.34,2.36-16.65.03-5.56-2.44-9.66-6.92-12.31-13.46-2.09-5.15-2.68-10.07-1.76-14.74,1.42-7.17,5.83-12.26,13.21-15.25,6.46-2.62,12.48-2.43,18.05.57,4.87,2.59,8.55,6.94,11.02,13.04,2.65,6.54,2.83,12.59.54,18.14-2.2,5.4-6.24,9.29-12.11,11.67Zm-3.27-8.39c3.26-1.32,5.25-3.77,5.98-7.35.61-2.99.18-6.3-1.29-9.91-1.11-2.74-2.52-4.97-4.22-6.66-3.39-3.35-7.16-4.18-11.31-2.49-3.31,1.34-5.31,3.76-6.01,7.27-.6,3.02-.15,6.37,1.35,10.07,1.52,3.74,3.59,6.46,6.21,8.14,2.96,1.93,6.06,2.25,9.29.94Z"/>
        <path class="cls-5" d="m77.6,83.83c.73,1.26,1.87,3.63,2.02,6.77.06,1.32.15,3.77-1.18,6.44-1.37,2.74-3.49,4.23-4.53,4.94-.49.34-1.15.76-2.07,1.17-1.9.84-4,1.06-6.29.65,2.67,5.18,2.52,10.33-.47,15.44-2.63,4.49-6.53,6.62-11.71,6.38-3.15-.15-6.47-1.24-9.96-3.27l-21.07-12.32c-1.03-.6-1.68-1.43-1.96-2.49-.39-1.41-.14-2.89.75-4.41,1.19-2.03,2.74-2.96,4.67-2.8.62.04,1.24.24,1.86.6l20.17,11.79c1.67.98,3.32,1.56,4.95,1.74,2.62.28,4.49-.53,5.61-2.44,1.02-1.74,1.1-3.88.23-6.4-.95-2.7-2.6-4.74-4.94-6.11l-18.85-11.02c-.93-.54-1.56-1.33-1.89-2.36-.42-1.43-.18-2.91.72-4.44,1.12-1.91,2.59-2.88,4.43-2.89.68-.02,1.37.18,2.06.58l19.89,11.63c2.01,1.17,3.87,1.85,5.6,2.02,2.41.26,4.13-.49,5.15-2.23,1.06-1.82,1.08-4.07.05-6.75-1.06-2.74-2.79-4.8-5.17-6.2l-18.27-10.68c-.96-.56-1.59-1.31-1.9-2.26-.47-1.49-.25-3.03.67-4.61,1.16-1.98,2.68-2.94,4.56-2.86.66.03,1.32.24,1.99.63l31.85,18.62c.98.57,1.62,1.36,1.93,2.38.39,1.25.23,2.48-.46,3.67-1.49,2.56-3.59,3.24-6.29,2.04l-2.13-.96Z"/>
      </g>
      <g>
        <path class="cls-6" d="m33.61,167.89l-11.24,2.94c-1.29.34-2.43.16-3.44-.52-1.18-.81-1.97-1.97-2.37-3.5-.59-2.25-.18-4.01,1.23-5.3.51-.45,1.14-.77,1.89-.97l53.04-13.88c1.07-.28,2.06-.18,2.95.3,1.36.7,2.26,1.92,2.72,3.67.57,2.17.22,3.9-1.04,5.21-.52.54-1.16.91-1.94,1.11l-29.95,7.84,19.8,13.87c1.33.94,2.17,2.05,2.5,3.33.32,1.2.14,2.39-.52,3.57-.85,1.45-1.97,2.36-3.36,2.72-1.39.36-2.71.08-3.96-.85l-13.43-10-12.33,18.97c-.87,1.28-2.01,2.11-3.43,2.48-1.69.44-3.16.16-4.43-.86-1.23-.97-2.02-2.13-2.37-3.5-.41-1.55-.08-3.05.97-4.5l13.65-18.5-4.94-3.64Z"/>
        <path class="cls-6" d="m92.71,221.09l2.04-1.78c1.7-1.51,3.56-1.31,5.56.59,1.6,1.53,2.12,3.19,1.56,4.98-.2.61-.55,1.18-1.04,1.7l-25.55,26.85c-.65.68-1.37,1.14-2.17,1.38-1.54.41-3.01-.05-4.41-1.39-1.94-1.85-2.1-3.93-.48-6.24l1.64-2.39c-5.38,1.68-10.47.23-15.29-4.34-5.13-4.88-7.12-10.7-5.96-17.47.82-4.8,3.21-9.28,7.18-13.45,3.76-3.95,8.03-6.43,12.82-7.45,3.95-.86,7.75-.6,11.41.77,2.55.93,4.81,2.35,6.8,4.23,4.45,4.23,6.41,8.9,5.87,14Zm-12.88,12.27l2.29-2.41c2.12-2.23,3.14-4.95,3.08-8.18-.06-3.27-1.19-5.94-3.37-8.02-2.53-2.4-5.56-3.29-9.11-2.65-3.14.57-6.06,2.28-8.77,5.12-2.33,2.45-3.84,5-4.54,7.66-1.05,4.08-.11,7.52,2.84,10.32,1.82,1.74,4.15,2.63,6.97,2.67,4.13.07,7.67-1.43,10.6-4.52Z"/>
        <path class="cls-6" d="m123.04,263.82l10.53-25.99c1.28-3.17,3.53-4.57,6.75-4.2,3.3.38,5.21,2.25,5.75,5.63l4.35,27.69,10.92-26.82c1.08-2.63,2.86-3.81,5.33-3.53.88.1,1.75.41,2.61.92,1.9,1.16,2.74,2.69,2.53,4.59-.08.66-.26,1.32-.56,1.98l-14.37,32.15c-1.5,3.37-3.98,4.85-7.44,4.45-3.63-.41-5.77-2.64-6.42-6.67l-4.28-26.14-10.07,24.5c-1.55,3.78-4.13,5.46-7.76,5.04-3.46-.4-5.55-2.4-6.25-6.02l-6.74-34.57c-.14-.74-.17-1.45-.09-2.14.2-1.79,1.31-3.04,3.31-3.76,1.04-.35,2.03-.48,2.97-.37,2.45.28,3.9,1.82,4.36,4.63l4.58,28.6Z"/>
        <path class="cls-6" d="m208.1,221.56l-1.15-2.45c-.98-2.05-.28-3.78,2.11-5.18,1.91-1.12,3.65-1.16,5.22-.13.53.36.98.85,1.34,1.47l18.75,31.97c.48.81.72,1.63.72,2.46-.03,1.59-.88,2.87-2.55,3.85-2.32,1.36-4.36.94-6.13-1.26l-1.84-2.24c.13,5.63-2.67,10.13-8.4,13.49-6.11,3.58-12.25,3.88-18.43.9-4.38-2.11-8.03-5.65-10.94-10.62-2.76-4.7-3.96-9.5-3.62-14.38.26-4.04,1.56-7.62,3.9-10.75,1.6-2.19,3.58-3.98,5.95-5.36,5.3-3.11,10.33-3.7,15.08-1.77Zm8.23,15.76l-1.68-2.86c-1.55-2.65-3.89-4.39-7.01-5.22-3.16-.84-6.04-.5-8.64,1.02-3.01,1.76-4.7,4.44-5.06,8.02-.32,3.17.51,6.45,2.5,9.84,1.71,2.91,3.74,5.07,6.11,6.48,3.63,2.14,7.2,2.18,10.71.12,2.17-1.27,3.67-3.26,4.49-5.96,1.21-3.95.74-7.76-1.42-11.44Z"/>
        <path class="cls-6" d="m269.91,191.8c3.18,5.58,3.28,11.36.29,17.35-2.36,4.73-5.91,7.56-10.65,8.51-3.65.75-7.95-.12-12.9-2.59l-20.61-10.29c-.99-.49-1.68-1.21-2.08-2.15-.59-1.47-.47-3.06.39-4.77.96-1.93,2.33-3,4.1-3.2.82-.09,1.62.07,2.41.46l19.68,9.83c2.18,1.09,4.15,1.66,5.92,1.7,2.92.1,5.02-1.13,6.29-3.68,1.42-2.85,1.31-6.18-.34-10-1.25-2.88-2.95-4.86-5.11-5.94l-17.94-8.96c-1.06-.53-1.78-1.32-2.15-2.37-.51-1.4-.35-2.91.46-4.55.96-1.93,2.33-3,4.1-3.2.82-.09,1.62.07,2.41.46l32.83,16.39c.99.5,1.71,1.15,2.17,1.97.67,1.2.64,2.53-.09,3.99-1.17,2.35-3.09,3.08-5.73,2.19l-3.45-1.17Z"/>
        <path class="cls-6" d="m239.56,138.21c-.42-5.99.5-10.88,2.76-14.67,1.21-2.05,2.75-3.15,4.6-3.28,1.08-.08,2.11.19,3.09.78,1.31.82,2.01,2.02,2.12,3.6.07,1.02-.33,2.19-1.21,3.5-1.98,2.97-2.85,6.18-2.61,9.63.31,4.47,1.74,6.62,4.28,6.44,1.49-.1,2.59-.99,3.31-2.65.21-.54.48-1.46.8-2.76,1.77-7.64,3.03-12.38,3.79-14.2,1.97-4.77,5.46-7.33,10.49-7.68,4.67-.33,8.37,1.27,11.11,4.8,2.38,3.08,3.76,7.38,4.15,12.9.44,6.32-.63,11.62-3.21,15.91-1.69,2.78-3.56,4.24-5.6,4.39-.97.07-1.93-.18-2.88-.75-1.3-.8-2.01-1.93-2.11-3.39-.08-1.16.33-2.28,1.22-3.37,2.74-3.3,3.94-7.32,3.6-12.07-.35-4.94-1.84-7.32-4.49-7.13-1.79.13-3.21,1.47-4.25,4.04-.63,1.65-1.67,5.6-3.12,11.83-1.55,6.77-5.36,10.36-11.43,10.79-4.75.33-8.51-1.69-11.29-6.07-1.78-2.79-2.81-6.31-3.11-10.56Z"/>
        <path class="cls-6" d="m225.05,95.49c-3.45-5.22-4.56-10.65-3.33-16.31,1.29-5.93,4.87-10.84,10.76-14.73,4.64-3.07,9.34-4.62,14.09-4.65,7.31-.03,13.17,3.28,17.56,9.93,3.85,5.82,4.85,11.75,3.02,17.81-1.58,5.29-5.11,9.75-10.6,13.38-5.88,3.89-11.78,5.27-17.67,4.13-5.73-1.09-10.34-4.27-13.84-9.56Zm7.58-4.86c1.94,2.93,4.74,4.4,8.39,4.4,3.05,0,6.21-1.07,9.46-3.22,2.47-1.63,4.37-3.45,5.7-5.46,2.61-3.98,2.68-7.84.2-11.58-1.97-2.98-4.74-4.46-8.32-4.45-3.08.01-6.28,1.12-9.6,3.31-3.37,2.23-5.62,4.79-6.75,7.7-1.31,3.29-1,6.38.92,9.29Z"/>
        <path class="cls-6" d="m212.66,43.54c-1.27-.78-2.28-1.89-3.03-3.32-1.41-2.78-1.3-5.49.32-8.13,1.13-1.84,2.75-3.05,4.87-3.64,2.32-.65,4.53-.34,6.62.95,1.23.75,2.19,1.77,2.9,3.05,1.54,2.83,1.46,5.62-.23,8.38-1.33,2.17-3.23,3.46-5.69,3.86-2.05.33-3.98-.06-5.77-1.16Z"/>
        <path class="cls-6" d="m159.7,55.91c-5.93-.77-10.4-3.09-13.41-6.94-1.55-1.99-2.21-3.88-1.98-5.66.18-1.34.88-2.43,2.1-3.24,1.1-.72,2.28-1,3.54-.83,1.43.19,2.54.93,3.35,2.24,1.96,3.16,4.52,4.94,7.67,5.35,3.59.47,6.67-.66,9.23-3.4,2.17-2.31,3.51-5.38,4-9.19.5-3.87-.11-7.24-1.86-10.12-1.93-3.15-4.57-4.95-7.92-5.39-3.21-.42-6.33.83-9.36,3.76-.96.96-2.09,1.36-3.38,1.19-1.21-.16-2.28-.77-3.23-1.85-1.1-1.2-1.54-2.63-1.33-4.27.19-1.45,1.01-2.83,2.46-4.12,3.98-3.53,9.33-4.85,16.05-3.97,6.86.9,12.1,3.9,15.73,9,3.44,4.83,4.73,10.61,3.85,17.33-.56,4.28-2.01,8.05-4.37,11.32-3.68,5.13-8.67,8.08-14.97,8.85-2.01.24-4.07.22-6.19-.05Z"/>
        <path class="cls-6" d="m117.24,62c-5.79,2.35-11.34,2.36-16.65.03-5.56-2.44-9.66-6.92-12.31-13.46-2.09-5.15-2.68-10.07-1.76-14.74,1.42-7.17,5.83-12.26,13.21-15.25,6.46-2.62,12.48-2.43,18.05.57,4.87,2.59,8.55,6.94,11.02,13.04,2.65,6.54,2.83,12.59.54,18.14-2.2,5.4-6.24,9.29-12.11,11.67Zm-3.27-8.39c3.26-1.32,5.25-3.77,5.98-7.35.61-2.99.18-6.3-1.29-9.91-1.11-2.74-2.52-4.97-4.22-6.66-3.39-3.35-7.16-4.18-11.31-2.49-3.31,1.34-5.31,3.76-6.01,7.27-.6,3.02-.15,6.37,1.35,10.07,1.52,3.74,3.59,6.46,6.21,8.14,2.96,1.93,6.06,2.25,9.29.94Z"/>
        <path class="cls-6" d="m77.75,78.4c2.72,4.67,2.69,9.38-.09,14.13-1.41,2.41-3.3,4.14-5.68,5.19-1.9.84-4,1.06-6.29.65,2.67,5.19,2.52,10.33-.47,15.44-2.63,4.49-6.53,6.61-11.71,6.37-3.15-.15-6.47-1.24-9.96-3.28l-21.07-12.32c-1.03-.6-1.68-1.43-1.96-2.49-.39-1.42-.14-2.89.75-4.41,1.19-2.03,2.74-2.96,4.67-2.8.62.04,1.24.24,1.86.61l20.17,11.8c1.67.98,3.32,1.56,4.95,1.74,2.62.28,4.49-.53,5.61-2.44,1.02-1.74,1.1-3.88.23-6.4-.95-2.7-2.6-4.74-4.94-6.11l-18.84-11.02c-.93-.54-1.56-1.33-1.89-2.36-.41-1.43-.17-2.91.72-4.44,1.12-1.91,2.59-2.87,4.43-2.89.68-.02,1.37.18,2.06.58l19.88,11.63c2.01,1.17,3.87,1.85,5.6,2.02,2.41.26,4.13-.49,5.15-2.23,1.06-1.82,1.08-4.06.05-6.75-1.06-2.74-2.79-4.8-5.17-6.2l-18.27-10.69c-.96-.56-1.59-1.31-1.9-2.26-.47-1.49-.25-3.03.67-4.61,1.16-1.98,2.68-2.94,4.56-2.86.66.03,1.32.24,1.99.63l31.85,18.63c.98.57,1.62,1.36,1.93,2.38.39,1.25.23,2.48-.46,3.67-1.49,2.56-3.59,3.24-6.29,2.04l-2.13-.96Z"/>
      </g>
      <path class="cls-6" d="m105.4,136.99c1.21-1.21-3.05-2.03.45-5.07,1.98-1.73,5.26.53,4.36,1.43s1.21-1.73,6.6-1.73c5.39,0,6.07.8,6.86,0s4.87-2.59,7.59-.8c2.31,1.53,2.07,6.6.09,6.6s2.35,1.03,2.35,5c0,3.98-1.16-3.1,16.37-2.47,17.53.63,19.46,3.05,19.46,3.05,0,0,1.31-1.5,2.61-1.5s3.79.77,5.26,1.34,5.83,2.23,8.56,2.23c2.53,0,12.39-.18,20.47-5.66.7-.48,4.04-1.75,3.64,1.47,0,0,.03,4.13-2.42,6.65-4.15,4.28-17.84,9.77-22.22,8,0,0,1.82,6.34,0,6.34-.28,0,12,7.76.75,11.76-3.88.87-6.93-1.21-6.93-5.39,0-.42-16.89,5.54-25.5,5.74s-21.94-.87-23.29-2.22c-.3-.3-14.72,12.54-18.61,2.86-.83-2.07.99-7.18,8.71-8.01,0,0-1.66-3.35-1.66-5.03,0-.63-20.28,3.81-21.94-5.34-1.66-9.15,5.48-11.31,5.98-11.81s-.34-4.65,2.44-7.43Z"/>
    </g>
  </g>
</svg>