<?xml version="1.0" encoding="UTF-8"?>
<svg xmlns="http://www.w3.org/2000/svg" viewBox="0 0 1920 1080">
  <g id="water1">
    <path d="M1193.94,474.53c34.04,231.91-146.88,352.98-534.04,365.96-380.85,12.77-579.94-258.39-600-448.94C25.85,68.15,439.72-66.3,659.89,110.7s479.11-10.39,534.04,363.83Z" fill="#6ad0c7"/>
  </g>
  <g id="water2">
    <path d="M1807.58,294.4c161.17,170.2,82.73,373.26-226.61,606.44-304.29,229.38-623.08,121.95-749.03-22.43-213.77-245.06,47.6-592.99,329.5-574.72,277.87,18,386.06-283.92,646.13-9.29Z" fill="#6ad0c7"/>
  </g>
  <g id="wave-line">
    <path d="M179.15,920.28c97.61,0,97.61,100,195.21,100s97.61-100,195.21-100,97.6,100,195.21,100,97.6-100,195.21-100,97.61,100,195.21,100,97.61-100,195.21-100,97.61,100,195.22,100,97.61-100,195.22-100" fill="none" stroke="#6ad0c7" stroke-miterlimit="10" stroke-width="10"/>
  </g>
</svg>